<?xml version="1.0" standalone="no"?>
<!DOCTYPE svg PUBLIC "-//W3C//DTD SVG 20010904//EN"
 "http://www.w3.org/TR/2001/REC-SVG-20010904/DTD/svg10.dtd">
<svg version="1.0" xmlns="http://www.w3.org/2000/svg"
 width="1024.000000pt" height="1024.000000pt" viewBox="0 0 1024.000000 1024.000000"
 preserveAspectRatio="xMidYMid meet">
<metadata>
Created by potrace 1.14, written by Peter Selinger 2001-2017
</metadata>
<g transform="translate(0.000000,1024.000000) scale(0.100000,-0.100000)"
fill="#000000" stroke="none">
<path d="M0 5120 l0 -5120 5120 0 5120 0 0 5120 0 5120 -5120 0 -5120 0 0
-5120z m5570 2437 c143 -28 222 -45 280 -60 30 -9 75 -21 100 -28 25 -6 49
-16 55 -20 5 -5 17 -9 26 -9 14 0 52 -14 134 -50 46 -20 231 -111 250 -123 11
-6 39 -24 63 -39 24 -16 45 -28 48 -28 10 0 195 -140 259 -195 139 -121 285
-277 372 -399 12 -17 26 -35 30 -41 19 -23 79 -115 120 -185 24 -41 48 -82 53
-90 38 -64 69 -136 64 -152 -5 -17 -21 -18 -227 -18 -159 1 -226 4 -238 13 -8
7 -28 37 -42 67 -41 83 -82 154 -135 232 -26 38 -51 77 -57 86 -34 54 -173
209 -256 286 -110 102 -247 204 -349 259 -19 11 -37 22 -40 26 -5 6 -98 52
-185 90 -27 12 -58 26 -67 32 -10 5 -23 9 -29 9 -6 0 -25 6 -42 13 -56 24
-203 64 -337 90 -203 41 -563 42 -752 1 -205 -43 -278 -63 -345 -91 -17 -7
-35 -13 -41 -13 -11 0 -93 -35 -202 -88 -140 -67 -337 -198 -455 -303 -100
-90 -205 -200 -199 -210 3 -5 28 13 56 41 27 27 82 76 121 108 40 31 77 62 82
68 44 48 313 202 470 268 22 9 47 21 55 25 9 5 31 12 50 16 19 4 41 11 50 16
8 4 40 14 70 23 259 69 340 79 605 73 266 -5 351 -18 575 -88 117 -37 108 -33
260 -107 117 -57 272 -152 342 -211 159 -133 239 -213 345 -346 44 -56 102
-137 110 -155 4 -8 9 -17 13 -20 4 -3 24 -36 45 -75 21 -38 43 -77 48 -86 6
-9 7 -24 4 -33 -6 -14 -34 -16 -256 -16 l-249 0 -30 34 c-16 19 -45 56 -63 83
-18 26 -38 53 -44 60 -5 6 -35 41 -65 78 -96 116 -210 227 -318 310 -7 6 -18
15 -25 20 -45 39 -220 133 -332 178 -83 33 -243 77 -283 77 -17 0 -43 5 -58
10 -15 6 -108 15 -206 20 -185 10 -388 2 -484 -21 -142 -32 -240 -62 -319 -94
-56 -23 -209 -98 -215 -105 -3 -4 -23 -17 -45 -31 -161 -97 -363 -295 -474
-465 -63 -96 -126 -213 -166 -309 -7 -16 -20 -47 -29 -68 -9 -21 -16 -45 -16
-54 0 -8 -9 -31 -21 -50 -21 -33 -23 -34 -78 -31 -50 3 -56 5 -59 27 -2 13 3
42 11 65 8 22 22 66 32 96 9 30 23 69 31 87 8 17 14 36 14 41 0 6 7 23 15 39
7 15 35 73 61 128 76 161 192 345 300 475 36 43 270 278 305 307 166 132 274
202 449 289 74 36 143 70 152 75 10 5 46 18 80 29 35 12 70 25 78 29 9 5 31
12 50 16 19 4 40 11 45 15 6 4 30 10 54 14 24 4 49 10 55 14 11 7 39 13 256
51 137 25 556 23 690 -2z m416 -1638 c12 -9 14 -80 14 -400 0 -374 -1 -389
-19 -399 -11 -5 -36 -10 -56 -10 -77 0 -75 -6 -75 239 0 120 -3 221 -7 225 -7
6 -19 -44 -39 -159 -6 -33 -26 -127 -49 -225 -9 -35 -21 -68 -28 -73 -14 -9
-123 -4 -133 6 -4 4 -11 26 -15 49 -5 24 -15 75 -24 113 -8 39 -22 104 -30
145 -42 219 -43 217 -44 -50 -1 -177 -4 -249 -13 -258 -15 -15 -92 -16 -119
-2 -18 10 -19 25 -19 398 0 289 3 391 12 400 19 19 192 16 208 -3 12 -15 21
-48 40 -148 5 -26 13 -62 18 -80 17 -55 42 -171 42 -192 0 -11 4 -26 9 -33 9
-14 24 38 56 193 9 44 23 103 31 131 8 28 14 63 14 78 0 15 10 37 23 49 20 20
31 22 106 20 45 -1 89 -8 97 -14z m474 -7 c9 -11 22 -39 29 -63 7 -24 19 -60
26 -79 21 -61 36 -103 57 -170 11 -36 27 -80 34 -98 8 -18 14 -39 14 -46 0 -8
7 -27 15 -42 8 -16 15 -36 15 -45 0 -9 7 -30 15 -45 8 -16 15 -39 15 -51 0
-12 4 -24 9 -27 4 -3 11 -24 15 -47 4 -24 14 -48 24 -55 15 -11 14 -14 -11
-23 -45 -17 -122 -14 -144 7 -16 14 -34 59 -59 150 -2 9 -37 12 -127 12 -140
0 -127 8 -162 -100 -9 -30 -22 -61 -27 -67 -7 -8 -35 -13 -75 -13 -50 0 -65 4
-70 16 -6 16 15 97 43 162 8 18 14 39 14 47 0 8 6 29 14 47 8 18 22 60 31 93
10 33 21 69 25 80 5 11 18 52 30 90 11 39 25 79 30 90 9 23 35 106 44 147 4
16 18 34 34 42 38 20 122 13 142 -12z m875 8 c13 -11 15 -64 15 -331 0 -310 1
-319 20 -319 10 0 24 -9 30 -19 12 -23 13 -280 1 -299 -5 -9 -25 -12 -62 -10
l-54 3 -3 60 c-5 115 16 105 -207 105 l-195 0 0 -73 c0 -43 -5 -78 -12 -85 -7
-7 -33 -12 -60 -12 -36 0 -50 4 -58 19 -11 22 -5 290 7 302 5 4 17 9 27 11 12
2 25 19 33 43 23 64 53 328 53 473 0 122 2 133 19 140 35 12 430 5 446 -8z
m279 -7 c4 -8 7 -116 7 -239 l-2 -225 21 18 c11 10 20 22 20 28 -1 14 183 379
193 383 4 2 7 10 7 17 0 30 88 51 138 34 l22 -9 0 -399 c0 -446 6 -411 -75
-411 -24 0 -48 6 -54 14 -9 10 -11 77 -9 235 2 122 2 217 0 211 -2 -5 -9 -10
-15 -11 -7 0 -57 -90 -112 -201 -55 -110 -110 -211 -122 -224 -18 -19 -32 -24
-72 -24 -88 0 -81 -37 -81 405 0 316 3 396 13 407 18 18 109 11 121 -9z
m-4174 -113 c11 -11 20 -26 20 -34 0 -8 4 -18 10 -21 5 -3 134 -6 286 -5 l277
1 51 -54 c28 -30 62 -67 75 -83 13 -16 37 -44 53 -62 15 -18 28 -41 28 -51 0
-27 -116 -198 -138 -204 -11 -2 -26 0 -35 4 -12 7 -17 3 -22 -21 -4 -17 -20
-43 -35 -59 -16 -16 -26 -31 -23 -35 4 -3 288 -6 633 -6 639 0 650 -1 650 -37
0 -23 -41 -34 -155 -43 -63 -5 -123 -13 -134 -19 -11 -6 -33 -11 -48 -11 -31
0 -172 -35 -201 -49 -9 -5 -37 -18 -62 -30 -125 -61 -215 -127 -311 -229 -58
-60 -119 -159 -119 -191 0 -31 -25 -61 -55 -67 -58 -10 -70 5 -85 103 -7 48
-16 93 -20 98 -4 6 -11 21 -15 35 -25 82 -135 203 -215 235 -8 4 -23 11 -34
17 -23 12 -103 28 -181 34 -97 9 -256 -27 -336 -75 -19 -12 -43 -25 -54 -30
-47 -21 -141 -128 -177 -201 -25 -50 -48 -129 -48 -168 0 -26 -5 -35 -27 -43
-53 -20 -75 -2 -93 76 -32 144 -149 308 -279 390 -9 6 -34 22 -56 36 -46 29
-108 59 -123 59 -5 0 -23 7 -38 15 -16 8 -45 15 -64 16 -19 0 -53 6 -75 13
-33 9 -40 16 -40 36 0 24 3 25 84 30 48 3 86 10 88 16 7 22 -32 39 -101 44
-93 7 -98 25 -27 98 l51 52 117 0 c79 0 126 5 143 14 14 7 55 29 92 49 60 33
75 37 143 37 l75 0 -25 40 c-29 45 -33 95 -9 104 9 3 69 6 135 6 l120 0 -7 38
c-3 20 -12 47 -20 59 -15 23 -19 75 -7 86 3 4 82 7 175 7 155 0 170 -2 188
-20z m4178 -907 c4 -71 -28 -283 -48 -324 -5 -9 -12 -34 -16 -55 -3 -22 -10
-43 -14 -49 -5 -5 -11 -27 -15 -48 -4 -20 -11 -40 -16 -43 -5 -3 -9 -12 -9
-20 0 -8 -10 -36 -21 -62 -12 -26 -31 -69 -44 -97 -12 -27 -26 -57 -29 -65 -4
-8 -15 -28 -24 -45 -9 -16 -30 -52 -45 -80 -15 -27 -36 -63 -47 -80 -11 -16
-23 -37 -27 -45 -10 -23 -171 -239 -211 -285 -88 -101 -221 -233 -307 -304
-67 -56 -260 -193 -320 -227 -27 -16 -223 -113 -260 -129 -77 -35 -104 -45
-113 -45 -5 0 -23 -7 -38 -15 -16 -8 -37 -15 -47 -15 -10 0 -28 -5 -40 -12
-12 -6 -38 -15 -57 -19 -19 -4 -78 -17 -130 -29 -310 -71 -625 -76 -935 -14
-179 35 -258 54 -269 65 -6 5 -18 9 -27 9 -15 0 -137 42 -204 70 -178 74 -475
246 -552 319 -12 12 -25 21 -29 21 -26 0 -304 275 -399 395 -74 93 -205 288
-205 304 0 5 -4 11 -8 13 -10 4 -132 252 -132 268 0 7 -6 24 -14 38 -46 90
-55 129 -34 150 9 9 166 12 644 12 720 0 648 10 705 -95 108 -201 277 -399
451 -531 53 -41 99 -74 102 -74 3 0 22 -12 43 -26 54 -37 206 -108 288 -134
39 -13 79 -27 90 -31 146 -55 514 -91 727 -71 122 11 244 31 263 43 6 4 28 10
50 14 22 4 42 10 45 13 3 4 37 18 75 31 72 25 268 122 296 147 8 8 19 14 23
14 19 0 210 155 296 240 149 146 246 279 342 467 32 64 58 122 58 129 0 8 4
22 9 32 24 46 43 116 71 264 12 65 16 69 63 66 l42 -3 3 -52z"/>
<path d="M3400 6594 c0 -8 5 -12 10 -9 6 3 10 10 10 16 0 5 -4 9 -10 9 -5 0
-10 -7 -10 -16z"/>
<path d="M3370 6564 c0 -8 5 -12 10 -9 6 3 10 10 10 16 0 5 -4 9 -10 9 -5 0
-10 -7 -10 -16z"/>
<path d="M3340 6529 c0 -5 5 -7 10 -4 6 3 10 8 10 11 0 2 -4 4 -10 4 -5 0 -10
-5 -10 -11z"/>
<path d="M6373 5663 c-7 -2 -13 -13 -13 -23 0 -9 -8 -44 -19 -76 -10 -33 -21
-71 -25 -86 l-6 -28 71 0 c71 0 71 0 65 25 -3 14 -9 37 -12 53 -3 15 -12 41
-20 59 -8 17 -14 43 -14 57 0 26 -4 29 -27 19z"/>
<path d="M7026 5758 c-3 -13 -7 -66 -10 -118 -8 -150 -23 -283 -35 -313 -22
-56 -21 -57 99 -57 l110 0 -2 253 -3 252 -77 3 c-74 3 -78 2 -82 -20z"/>
<path d="M3230 5633 c0 -5 16 -18 35 -31 36 -23 43 -36 25 -47 -5 -3 -73 -8
-152 -10 -89 -3 -144 -9 -146 -15 -9 -26 31 -50 80 -50 45 0 52 -4 93 -46 38
-38 45 -42 45 -25 0 12 -4 21 -9 21 -15 0 -23 39 -16 77 l6 36 72 -6 c39 -2
73 -10 75 -16 2 -6 8 -11 13 -11 5 0 17 -8 27 -17 10 -10 39 -37 65 -60 l46
-43 95 0 c74 0 98 4 108 15 43 52 100 105 112 105 8 0 16 7 20 15 4 11 22 15
69 15 35 0 67 -4 73 -10 5 -5 35 -23 66 -38 59 -31 88 -28 88 7 0 39 -42 45
-315 46 -143 0 -248 -1 -233 -3 22 -3 29 -10 34 -38 10 -55 2 -64 -61 -64 -52
0 -59 3 -90 38 -19 20 -35 40 -35 44 0 4 -6 13 -13 20 -7 7 -27 32 -45 56 -32
39 -37 42 -83 42 -27 0 -49 -3 -49 -7z"/>
<path d="M3640 5630 c0 -6 70 -10 190 -10 120 0 190 4 190 10 0 6 -70 10 -190
10 -120 0 -190 -4 -190 -10z"/>
<path d="M3848 5453 c7 -3 16 -2 19 1 4 3 -2 6 -13 5 -11 0 -14 -3 -6 -6z"/>
<path d="M3343 5402 c-3 -9 -8 -20 -10 -25 -2 -4 7 -11 22 -17 14 -5 30 -21
37 -35 12 -28 28 -33 28 -10 0 23 -39 93 -56 99 -9 3 -17 -1 -21 -12z"/>
<path d="M3866 5359 c-31 -24 -35 -68 -8 -92 34 -30 73 -25 95 13 19 31 14 51
-19 84 -21 21 -36 20 -68 -5z"/>
<path d="M3588 5292 l-168 -2 0 -25 c0 -31 -29 -43 -86 -37 -49 5 -84 -11 -84
-38 0 -19 8 -20 285 -20 173 0 285 4 285 9 0 6 -11 21 -24 35 -12 14 -27 38
-32 53 l-9 28 -167 -3z"/>
<path d="M2610 5221 c-15 -4 -26 -15 -28 -29 l-3 -22 240 0 c252 0 277 5 231
42 -20 16 -42 18 -219 17 -108 -1 -207 -4 -221 -8z"/>
<path d="M3571 4323 c22 -62 104 -201 134 -228 6 -5 27 -30 47 -55 48 -61 186
-200 198 -200 6 0 10 -4 10 -8 0 -4 41 -44 92 -88 50 -43 103 -89 117 -102 34
-30 52 -33 146 -30 l80 3 -20 20 c-12 11 -43 38 -70 60 -93 74 -360 349 -428
439 -36 50 -80 118 -97 153 l-31 63 -94 0 -95 0 11 -27z"/>
<path d="M6820 3610 c0 -5 4 -10 9 -10 6 0 13 5 16 10 3 6 -1 10 -9 10 -9 0
-16 -4 -16 -10z"/>
<path d="M6787 3585 c-9 -8 -20 -15 -26 -15 -5 0 -16 -6 -23 -13 -7 -7 -32
-22 -55 -34 -23 -12 -50 -26 -60 -32 -35 -20 -155 -71 -165 -71 -5 0 -22 -6
-36 -14 -15 -8 -48 -22 -74 -31 -52 -18 -60 -30 -28 -40 32 -10 99 9 182 51
14 8 31 14 37 14 17 0 203 117 244 154 22 19 34 36 29 40 -6 3 -17 -1 -25 -9z"/>
<path d="M4473 3473 c-67 -6 -60 -16 57 -83 75 -43 218 -110 233 -110 7 0 17
-4 23 -9 8 -7 56 -23 194 -62 56 -15 129 -30 212 -41 71 -10 79 -9 112 11 20
13 36 26 36 30 0 9 -82 31 -115 31 -31 0 -183 37 -207 50 -10 6 -25 10 -33 10
-13 0 -92 33 -184 78 -19 10 -68 36 -110 60 -79 44 -92 46 -218 35z"/>
<path d="M6080 3284 c-19 -7 -47 -13 -62 -13 -15 -1 -39 -6 -55 -12 -36 -14
-143 -28 -317 -42 l-139 -12 -25 -33 -25 -33 134 4 c129 4 226 18 354 50 33 8
80 20 105 26 25 6 56 15 70 20 14 5 33 12 43 15 15 5 16 9 7 26 -12 23 -38 24
-90 4z"/>
</g>
</svg>
